<svg id="Capa_1" enable-background="new 0 0 512 512" height="512" viewBox="0 0 512 512" width="512" xmlns="http://www.w3.org/2000/svg"><g><g><path d="m481.683 254.393h-97.571l-.008-244.393c0-5.523-4.478-10-10-10h-343.787c-5.522 0-10 4.478-10 10v452.838c0 5.522 4.478 10 10 10h205.005v29.162c0 5.522 4.478 10 10 10h216.36c5.522 0 10-4.478 10-10v-175.604h10c5.522 0 10-4.478 10-10v-52.003c.001-5.523-4.477-10-9.999-10zm-441.366 198.445v-432.838h323.787l.008 234.393h-138.784-.006c-5.522 0-10 4.478-10 10v52.003c0 5.437 4.563 10 10 10h10v126.442zm411.366 39.162h-196.36v-165.604h196.36zm20-185.604h-236.36l.004-32.003h236.355v32.003z"/><path d="m92.176 146.234h220.072c5.522 0 10-4.478 10-10v-61.762c0-5.522-4.478-10-10-10h-220.072c-5.522 0-10 4.478-10 10v61.763c0 5.522 4.477 9.999 10 9.999zm10-61.762h200.072v41.763h-200.072z"/><path d="m92.176 214.175h220.072c5.522 0 10-4.478 10-10s-4.478-10-10-10h-220.072c-5.522 0-10 4.478-10 10s4.477 10 10 10z"/><path d="m175.761 258.208h-83.585c-5.522 0-10 4.478-10 10s4.478 10 10 10h83.585c5.522 0 10-4.478 10-10s-4.478-10-10-10z"/><path d="m175.761 322.241h-37.756c-5.522 0-10 4.478-10 10s4.478 10 10 10h37.756c5.522 0 10-4.478 10-10s-4.478-10-10-10z"/><path d="m175.761 383.582h-83.585c-5.522 0-10 4.478-10 10s4.478 10 10 10h83.585c5.522 0 10-4.478 10-10s-4.478-10-10-10z"/><path d="m86.62 340.56c7.57 4.962 17.619-2.228 15.185-10.984-1.142-4.11-4.872-7.107-9.139-7.319-4.262-.212-8.284 2.415-9.815 6.391-1.671 4.34-.047 9.296 3.769 11.912z"/><path d="m302.746 459.573h108.085c5.522 0 10-4.478 10-10v-50.402c0-5.522-4.478-10-10-10h-108.085c-5.522 0-10 4.478-10 10v50.402c0 5.523 4.478 10 10 10zm10-50.402h88.085v30.402h-88.085z"/></g></g></svg>