<svg width="62" height="32" viewBox="0 0 62 32" fill="none" xmlns="http://www.w3.org/2000/svg">
<rect width="62" height="32" rx="2" fill="white"/>
<path d="M19.7917 7H5.19398C4.53456 7 4 7.53501 4 8.19498V22.805C4 23.465 4.53456 24 5.19398 24H19.7917C20.4511 24 20.9857 23.465 20.9857 22.805V8.19498C20.9857 7.53501 20.4511 7 19.7917 7Z" fill="#91C30C"/>
<path d="M24.4599 11.5637V11.1194H25.5699V12.1462C25.4317 12.2687 25.2706 12.3626 25.0959 12.4225C24.9047 12.4981 24.7015 12.5388 24.4959 12.5426C24.2513 12.5487 24.0093 12.4907 23.7939 12.3744C23.5996 12.2644 23.4444 12.0964 23.3499 11.894C23.2496 11.682 23.1983 11.4501 23.1999 11.2155C23.1957 10.9689 23.2535 10.7252 23.3679 10.5069C23.479 10.3016 23.6509 10.1359 23.8599 10.0325C24.0474 9.94433 24.2528 9.90115 24.4599 9.90638C24.7256 9.88262 24.9916 9.94812 25.2159 10.0925C25.3942 10.2281 25.516 10.4249 25.5579 10.645L25.0299 10.7411C24.9961 10.6248 24.9242 10.5233 24.8259 10.4528C24.7172 10.3766 24.5864 10.3386 24.4539 10.3447C24.3532 10.3408 24.2529 10.3586 24.1597 10.397C24.0666 10.4353 23.9827 10.4933 23.9139 10.5669C23.7695 10.7462 23.6988 10.9738 23.7159 11.2034C23.6976 11.449 23.7703 11.6926 23.9199 11.888C23.9865 11.9628 24.0691 12.0217 24.1616 12.0601C24.254 12.0986 24.3539 12.1157 24.4539 12.1102C24.5651 12.1087 24.675 12.0863 24.7779 12.0441C24.879 12.0061 24.974 11.9535 25.0599 11.888V11.5637H24.4599Z" fill="#91C30C"/>
<path d="M25.9474 11.2333C25.9402 11.0052 25.9811 10.7781 26.0674 10.5668C26.1256 10.4421 26.2047 10.3284 26.3014 10.2305C26.3953 10.135 26.5076 10.0594 26.6314 10.0083C26.8066 9.93745 26.9944 9.90273 27.1834 9.90623C27.3507 9.89872 27.5178 9.92637 27.6738 9.98739C27.8299 10.0484 27.9714 10.1414 28.0893 10.2605C28.2088 10.3925 28.3006 10.5472 28.3593 10.7153C28.4181 10.8834 28.4425 11.0616 28.4313 11.2393C28.4425 11.4157 28.4186 11.5925 28.3609 11.7595C28.3032 11.9265 28.213 12.0804 28.0953 12.2121C27.8497 12.4375 27.5286 12.5625 27.1954 12.5625C26.8621 12.5625 26.541 12.4375 26.2954 12.2121C26.1743 12.081 26.081 11.9266 26.0212 11.7584C25.9614 11.5902 25.9363 11.4115 25.9474 11.2333ZM26.4814 11.2333C26.4619 11.4725 26.5325 11.7102 26.6794 11.8999C26.803 12.034 26.9746 12.1136 27.1567 12.1215C27.3388 12.1294 27.5166 12.0648 27.6513 11.9419L27.6933 11.8999C27.8386 11.7094 27.9091 11.4723 27.8913 11.2333C27.9119 10.995 27.8435 10.7575 27.6993 10.5668C27.5655 10.4333 27.3843 10.3584 27.1954 10.3584C27.0064 10.3584 26.8252 10.4333 26.6914 10.5668C26.5451 10.7567 26.4745 10.9943 26.4934 11.2333H26.4814Z" fill="#91C30C"/>
<path d="M28.8154 9.9364H29.7754C29.9388 9.93075 30.1023 9.94691 30.2614 9.98444C30.4092 10.0303 30.5419 10.1154 30.6454 10.2306C30.7567 10.3491 30.8407 10.4905 30.8914 10.645C30.9515 10.8393 30.9798 11.0421 30.9754 11.2455C30.9796 11.4307 30.9533 11.6153 30.8974 11.7919C30.8414 11.9596 30.7469 12.1118 30.6214 12.2363C30.5186 12.3311 30.3954 12.4009 30.2614 12.4405C30.1129 12.4809 29.9592 12.4991 29.8054 12.4945H28.8154V9.9364ZM29.3314 10.3688V12.0682H29.7154C29.8191 12.0797 29.9237 12.0797 30.0274 12.0682C30.1136 12.048 30.1925 12.0043 30.2554 11.9421C30.3224 11.8737 30.37 11.7887 30.3934 11.6958C30.4334 11.5431 30.4516 11.3854 30.4474 11.2275C30.4512 11.0775 30.4331 10.9278 30.3934 10.7831C30.3659 10.6906 30.3165 10.6062 30.2494 10.5369C30.1821 10.4754 30.099 10.4338 30.0094 10.4168C29.8677 10.4039 29.7251 10.4039 29.5834 10.4168H29.3554L29.3314 10.3688Z" fill="#91C30C"/>
<path d="M33.7235 12.5004H33.1595L32.9375 11.8999H31.9115L31.6895 12.5004H31.1436L32.1395 9.93628H32.6975L33.7235 12.5004ZM32.7695 11.4856L32.4155 10.5368L32.0735 11.4856H32.7695Z" fill="#91C30C"/>
<path d="M33.9937 9.9364H34.9416C35.105 9.93075 35.2685 9.94691 35.4276 9.98444C35.5776 10.0294 35.7125 10.1145 35.8176 10.2306C35.9289 10.3491 36.0129 10.4905 36.0636 10.645C36.1238 10.8393 36.1522 11.0421 36.1476 11.2455C36.1493 11.429 36.1209 11.6116 36.0636 11.7859C36.0077 11.9536 35.9131 12.1058 35.7876 12.2303C35.6848 12.3251 35.5617 12.3949 35.4276 12.4345C35.2791 12.4749 35.1255 12.4931 34.9716 12.4885H33.9937V9.9364ZM34.5096 10.3688V12.0682H34.8936C34.9973 12.0797 35.1019 12.0797 35.2056 12.0682C35.2855 12.0453 35.3579 12.0018 35.4156 11.9421C35.4826 11.8737 35.5302 11.7887 35.5536 11.6958C35.5937 11.5431 35.6119 11.3854 35.6076 11.2275C35.6116 11.0775 35.5934 10.9278 35.5536 10.7831C35.5296 10.6869 35.4822 10.5982 35.4156 10.5249C35.3483 10.4634 35.2652 10.4218 35.1756 10.4048C35.0339 10.3918 34.8913 10.3918 34.7496 10.4048H34.5216L34.5096 10.3688Z" fill="#91C30C"/>
<path d="M36.5732 9.9364H37.5212C37.6846 9.93075 37.8481 9.94691 38.0072 9.98444C38.1551 10.0303 38.2877 10.1154 38.3912 10.2306C38.5025 10.3491 38.5865 10.4905 38.6372 10.645C38.6974 10.8393 38.7258 11.0421 38.7212 11.2455C38.7255 11.4307 38.6991 11.6153 38.6432 11.7919C38.5872 11.9596 38.4927 12.1118 38.3672 12.2363C38.2644 12.3311 38.1413 12.4009 38.0072 12.4405C37.8587 12.4809 37.7051 12.4991 37.5512 12.4945H36.5792V9.9364H36.5732ZM37.0892 10.3688V12.0682H37.4732C37.5769 12.0797 37.6815 12.0797 37.7852 12.0682C37.8672 12.0462 37.9418 12.0027 38.0012 11.9421C38.0682 11.8737 38.1158 11.7887 38.1392 11.6958C38.1793 11.5431 38.1974 11.3854 38.1932 11.2275C38.1971 11.0775 38.1789 10.9278 38.1392 10.7831C38.1117 10.6906 38.0623 10.6062 37.9952 10.5369C37.9279 10.4754 37.8448 10.4338 37.7552 10.4168C37.6135 10.4038 37.4709 10.4038 37.3292 10.4168H37.1012L37.0892 10.3688Z" fill="#91C30C"/>
<path d="M39.8193 12.5004V11.4195L38.8833 9.93628H39.4833L40.0833 10.9511L40.6833 9.93628H41.2833L40.3353 11.4255V12.5004H39.8193Z" fill="#91C30C"/>
<path d="M41.1572 12.5006V12.0142H41.6492V12.5066H41.1572V12.5006Z" fill="#91C30C"/>
<path d="M43.779 11.5637L44.271 11.7138C44.2112 11.9503 44.0765 12.1609 43.887 12.3143C43.6565 12.4701 43.3791 12.5409 43.1022 12.5146C42.8253 12.4883 42.5662 12.3666 42.3691 12.1702C42.1403 11.9067 42.024 11.5639 42.0451 11.2154C42.0232 10.8549 42.1414 10.4999 42.3751 10.2246C42.485 10.1149 42.6163 10.0291 42.7608 9.97224C42.9053 9.91543 43.0599 9.88891 43.215 9.89434C43.4955 9.88198 43.7695 9.9813 43.977 10.1706C44.1057 10.2999 44.197 10.4618 44.241 10.639L43.731 10.7591C43.708 10.634 43.6408 10.5215 43.5416 10.4421C43.4424 10.3627 43.318 10.3217 43.191 10.3267C43.1038 10.3251 43.0173 10.3425 42.9375 10.3778C42.8577 10.413 42.7866 10.4653 42.729 10.5309C42.5921 10.7247 42.5283 10.9609 42.5491 11.1974C42.527 11.4407 42.5883 11.6843 42.723 11.888C42.7786 11.9513 42.8468 12.0022 42.9233 12.0373C42.9998 12.0725 43.0829 12.0912 43.167 12.0921C43.2975 12.0945 43.424 12.0473 43.521 11.96C43.6468 11.8586 43.7372 11.7199 43.779 11.5637Z" fill="#91C30C"/>
<path d="M44.6194 11.2333C44.6122 11.0052 44.6531 10.7781 44.7394 10.5668C44.7994 10.4417 44.8806 10.3279 44.9794 10.2305C45.0733 10.135 45.1856 10.0594 45.3094 10.0083C45.4846 9.93745 45.6724 9.90273 45.8614 9.90623C46.0287 9.89872 46.1958 9.92637 46.3518 9.98739C46.5079 10.0484 46.6494 10.1414 46.7673 10.2605C46.8868 10.3925 46.9786 10.5472 47.0373 10.7153C47.0961 10.8834 47.1205 11.0616 47.1093 11.2393C47.1205 11.4157 47.0966 11.5925 47.0389 11.7595C46.9812 11.9265 46.891 12.0804 46.7733 12.2121C46.5277 12.4375 46.2066 12.5625 45.8734 12.5625C45.5401 12.5625 45.219 12.4375 44.9734 12.2121C44.8512 12.0815 44.7568 11.9274 44.696 11.7591C44.6351 11.5908 44.6091 11.412 44.6194 11.2333ZM45.1534 11.2333C45.1339 11.4725 45.2045 11.7102 45.3514 11.8999C45.475 12.034 45.6466 12.1136 45.8287 12.1215C46.0108 12.1294 46.1886 12.0648 46.3234 11.9419L46.3653 11.8999C46.5106 11.7094 46.5811 11.4723 46.5633 11.2333C46.5839 10.995 46.5155 10.7575 46.3714 10.5668C46.2375 10.4333 46.0563 10.3584 45.8674 10.3584C45.6784 10.3584 45.4972 10.4333 45.3634 10.5668C45.2213 10.7584 45.1551 10.9958 45.1774 11.2333H45.1534Z" fill="#91C30C"/>
<path d="M47.499 12.5004V9.93628H48.273L48.735 11.6837L49.215 9.93628H49.989V12.5004H49.509V10.4827L48.999 12.5004H48.489L47.979 10.4827V12.5004H47.499Z" fill="#91C30C"/>
<path d="M22.7798 17.995L23.8058 17.8929C23.8396 18.1833 23.9732 18.4528 24.1838 18.6555C24.402 18.832 24.6775 18.9218 24.9577 18.9077C25.2336 18.9251 25.507 18.8466 25.7317 18.6855C25.8109 18.6259 25.8753 18.5488 25.92 18.4603C25.9647 18.3719 25.9886 18.2743 25.9897 18.1751C25.9932 18.0595 25.9548 17.9465 25.8817 17.8569C25.7766 17.7519 25.6465 17.6755 25.5037 17.6347C25.3797 17.5906 25.0977 17.5166 24.6577 17.4125C24.2235 17.3348 23.8129 17.1581 23.4578 16.8961C23.3053 16.7659 23.1833 16.6037 23.1003 16.4211C23.0174 16.2384 22.9755 16.0398 22.9778 15.8392C22.9762 15.5725 23.0534 15.3114 23.1998 15.0886C23.3587 14.8483 23.5867 14.6619 23.8538 14.5541C24.1822 14.4254 24.5332 14.3641 24.8857 14.374C25.4175 14.3346 25.9457 14.488 26.3737 14.8063C26.5397 14.9503 26.6727 15.1283 26.7638 15.3283C26.8549 15.5283 26.902 15.7455 26.9017 15.9653L25.8157 16.0193C25.7996 15.7885 25.6941 15.5731 25.5217 15.4189C25.3258 15.2867 25.0915 15.2234 24.8557 15.2387C24.5994 15.2234 24.345 15.2907 24.1298 15.4309C24.0771 15.4667 24.0341 15.5151 24.0048 15.5717C23.9755 15.6284 23.9607 15.6914 23.9618 15.7551C23.9618 15.8166 23.9758 15.8772 24.0029 15.9324C24.0299 15.9876 24.0692 16.0358 24.1178 16.0734C24.4169 16.2511 24.7465 16.3713 25.0897 16.4277C25.4853 16.5082 25.8699 16.6352 26.2357 16.806C26.4814 16.9249 26.6892 17.11 26.8357 17.3404C26.9792 17.599 27.051 17.8912 27.0436 18.1869C27.0363 18.4825 26.95 18.7708 26.7937 19.0218C26.6271 19.2919 26.3792 19.5021 26.0857 19.6223C25.7218 19.7597 25.3346 19.825 24.9457 19.8145C24.3967 19.8507 23.8531 19.6864 23.4158 19.3521C23.0365 18.999 22.8086 18.5126 22.7798 17.995Z" fill="#48515D"/>
<path d="M27.9395 19.7063V14.458H31.8154V15.3467H28.9954V16.5117H31.6294V17.4064H28.9954V18.8356H31.9294V19.7484H27.9395V19.7063Z" fill="#48515D"/>
<path d="M36.1895 17.773L37.2155 18.0973C37.1034 18.5994 36.8267 19.0497 36.4295 19.3763C35.9555 19.6933 35.3865 19.8366 34.819 19.7819C34.2516 19.7272 33.7204 19.4778 33.3156 19.0761C32.8476 18.5351 32.6087 17.8328 32.6496 17.1184C32.6039 16.3797 32.8422 15.6514 33.3156 15.0828C33.5455 14.8389 33.8254 14.6476 34.1361 14.5222C34.4468 14.3968 34.7809 14.3401 35.1155 14.3562C35.6903 14.3333 36.2509 14.5383 36.6755 14.9266C36.9408 15.1955 37.1275 15.532 37.2155 15.8994L36.1415 16.1456C36.0941 15.8887 35.9558 15.6575 35.752 15.4943C35.5481 15.3311 35.2924 15.2468 35.0315 15.2569C34.8522 15.2516 34.6739 15.2866 34.5098 15.3593C34.3458 15.4321 34.2001 15.5407 34.0835 15.6773C33.8084 16.0735 33.681 16.5538 33.7236 17.0344C33.6784 17.534 33.8055 18.0341 34.0835 18.4515C34.1965 18.5877 34.3389 18.6963 34.5001 18.7691C34.6612 18.842 34.8368 18.8771 35.0135 18.8719C35.2809 18.8765 35.5401 18.78 35.7395 18.6017C35.9713 18.3785 36.1285 18.089 36.1895 17.773Z" fill="#48515D"/>
<path d="M38.1152 14.458H39.1772V17.2923C39.1694 17.5852 39.1834 17.8783 39.2192 18.1691C39.2599 18.3753 39.3753 18.5592 39.5432 18.6855C39.7488 18.8275 39.9957 18.8972 40.2452 18.8837C40.4857 18.9 40.7247 18.8344 40.9232 18.6975C41.0671 18.5888 41.1655 18.4304 41.1992 18.2531C41.2364 17.9524 41.2505 17.6493 41.2412 17.3464V14.458H42.3032V17.2083C42.3156 17.6565 42.2855 18.1049 42.2132 18.5474C42.165 18.7928 42.0556 19.0221 41.8952 19.2139C41.7309 19.4007 41.5255 19.5467 41.2952 19.6403C40.9707 19.7589 40.6264 19.8139 40.2812 19.8024C39.8934 19.8211 39.5058 19.7618 39.1412 19.6283C38.9096 19.5285 38.7042 19.3764 38.5412 19.1839C38.3956 19.01 38.2928 18.8043 38.2412 18.5834C38.1607 18.1438 38.1266 17.697 38.1392 17.2503V14.458H38.1152Z" fill="#48515D"/>
<path d="M43.4194 19.7064V14.4581H45.6454C46.0505 14.442 46.4556 14.4907 46.8454 14.6022C47.0961 14.6984 47.3074 14.876 47.4454 15.1066C47.5977 15.3556 47.6748 15.6434 47.6674 15.9353C47.6823 16.2904 47.5623 16.638 47.3314 16.9081C47.0536 17.1878 46.6859 17.3602 46.2934 17.3945C46.5041 17.5139 46.6961 17.6636 46.8634 17.8389C47.0877 18.1051 47.2884 18.3904 47.4634 18.6916L48.1053 19.7184H46.8754L46.1074 18.5474C45.9383 18.2775 45.7519 18.0187 45.5494 17.7728C45.4629 17.6741 45.3538 17.5978 45.2314 17.5506C45.0576 17.503 44.8774 17.4828 44.6974 17.4906H44.4754V19.6824H43.4194V19.7064ZM44.4814 16.7039H45.2674C45.5861 16.7094 45.9043 16.6771 46.2154 16.6078C46.3364 16.5676 46.4415 16.4898 46.5154 16.3857C46.5911 16.2677 46.6288 16.1294 46.6234 15.9893C46.6303 15.9094 46.6211 15.8289 46.5963 15.7526C46.5716 15.6762 46.5318 15.6057 46.4794 15.545C46.3756 15.4322 46.2353 15.3599 46.0834 15.3408H44.4814V16.7039Z" fill="#48515D"/>
<path d="M48.7231 19.7063V14.458H52.6171V15.3467H49.7731V16.5117H52.4071V17.4064H49.7731V18.8356H52.7071V19.7484H48.7231V19.7063Z" fill="#48515D"/>
<path d="M53.6009 14.4581H55.5388C55.8739 14.4478 56.2088 14.4821 56.5348 14.5602C56.837 14.6466 57.1104 14.8125 57.3268 15.0406C57.5525 15.2854 57.7224 15.5763 57.8248 15.8933C57.9498 16.2954 58.0086 16.7152 57.9988 17.1363C58.0058 17.513 57.9511 17.8883 57.8368 18.2472C57.7255 18.598 57.5321 18.9171 57.2728 19.178C57.0607 19.374 56.806 19.5179 56.5288 19.5983C56.2241 19.6823 55.9087 19.7208 55.5928 19.7124H53.5889V14.4581H53.6009ZM54.6628 15.3468V18.8177H55.4548C55.6702 18.8237 55.8855 18.8055 56.0968 18.7636C56.2523 18.7268 56.3964 18.6526 56.5168 18.5475C56.6524 18.4048 56.7476 18.2286 56.7928 18.037C56.874 17.7235 56.9103 17.4 56.9008 17.0762C56.9134 16.7626 56.879 16.4489 56.7988 16.1455C56.7455 15.9563 56.6466 15.7831 56.5108 15.6411C56.3728 15.5149 56.2024 15.4297 56.0188 15.3949C55.7311 15.3505 55.4399 15.3324 55.1488 15.3408H54.6628V15.3468Z" fill="#48515D"/>
<path d="M14.3015 10.4529C13.5229 10.3579 12.7771 10.0824 12.1236 9.64819C11.4698 10.0818 10.7241 10.3573 9.94563 10.4529H6.78369C7.09597 11.0429 7.28384 11.6908 7.33568 12.3564V17.6168C7.4287 18.198 7.64839 18.7516 7.97917 19.2383C8.30994 19.725 8.74369 20.1329 9.24964 20.4331C11.0496 21.6341 11.7876 21.6341 12.1236 21.9643C12.4656 21.6221 13.1856 21.6281 14.9915 20.4331C15.4969 20.1323 15.9303 19.7242 16.261 19.2376C16.5917 18.751 16.8117 18.1977 16.9055 17.6168V12.3564C16.9573 11.6908 17.1452 11.0429 17.4575 10.4529H14.3015Z" fill="white"/>
<path d="M14.6799 14.5722H14.3379V14.0618C14.3379 13.471 14.1034 12.9043 13.6859 12.4865C13.2685 12.0687 12.7023 11.834 12.1119 11.834C11.5216 11.834 10.9554 12.0687 10.538 12.4865C10.1205 12.9043 9.88599 13.471 9.88599 14.0618V14.5722H9.56799C9.48366 14.5722 9.40277 14.6058 9.34314 14.6655C9.2835 14.7251 9.25 14.8061 9.25 14.8905V18.6616C9.25 18.746 9.2835 18.827 9.34314 18.8867C9.40277 18.9463 9.48366 18.9799 9.56799 18.9799H14.6859C14.7276 18.9815 14.7693 18.9748 14.8084 18.9603C14.8476 18.9458 14.8835 18.9237 14.9141 18.8953C14.9447 18.8668 14.9695 18.8327 14.9869 18.7947C15.0043 18.7567 15.0141 18.7157 15.0157 18.6739L15.0159 18.6676V14.8965C15.0176 14.8121 14.9858 14.7305 14.9274 14.6696C14.869 14.6087 14.7888 14.5735 14.7045 14.5718C14.6963 14.5716 14.6881 14.5718 14.6799 14.5722ZM12.5139 16.746L12.7179 18.0611C12.7214 18.0889 12.714 18.1169 12.6972 18.1394C12.6804 18.1618 12.6556 18.1768 12.6279 18.1812H11.812C11.7833 18.1812 11.7558 18.1698 11.7356 18.1496C11.7153 18.1293 11.704 18.1018 11.704 18.0731L11.9079 16.746C11.9108 16.7268 11.9083 16.7072 11.901 16.6892C11.8936 16.6713 11.8815 16.6556 11.8659 16.6439C11.7616 16.5706 11.6834 16.4658 11.6425 16.3449C11.6017 16.224 11.6004 16.0933 11.6389 15.9716C11.6773 15.8499 11.7535 15.7436 11.8564 15.6682C11.9592 15.5928 12.0834 15.5522 12.2109 15.5522C12.3385 15.5522 12.4626 15.5928 12.5655 15.6682C12.6684 15.7436 12.7446 15.8499 12.783 15.9716C12.8215 16.0933 12.8202 16.224 12.7793 16.3449C12.7385 16.4658 12.6603 16.5706 12.5559 16.6439C12.5382 16.6541 12.5237 16.6691 12.5142 16.6872C12.5046 16.7052 12.5004 16.7256 12.5019 16.746H12.5139ZM13.6719 14.5662H10.582V14.0618C10.6064 13.6699 10.7792 13.3021 11.0651 13.0333C11.3511 12.7644 11.7286 12.6148 12.1209 12.6148C12.5133 12.6148 12.8908 12.7644 13.1767 13.0333C13.4627 13.3021 13.6355 13.6699 13.6599 14.0618V14.5722L13.6719 14.5662Z" fill="#91C30C"/>
</svg>
