<?xml version="1.0" encoding="iso-8859-1"?>
<!-- Generator: Adobe Illustrator 19.0.0, SVG Export Plug-In . SVG Version: 6.00 Build 0)  -->
<svg version="1.1" id="Capa_1" xmlns="http://www.w3.org/2000/svg" xmlns:xlink="http://www.w3.org/1999/xlink" x="0px" y="0px"
	 viewBox="0 0 508.1 508.1" style="enable-background:new 0 0 508.1 508.1;" xml:space="preserve">
<g>
	<g>
		<path d="M493.999,438l-58.9-58.9c-7.3-7.3-18.7-8.8-27.9-4.7l-14.7-14.7c28.4-44.4,23.3-104.2-15.5-143
			c-4.9-4.9-10.2-9.2-15.8-13.1c1-7.7,1.6-15.5,1.6-23.3c0-45.5-16.9-88.3-47.5-121.7l0.3-0.3l-5.8-5.8
			c-34-33.8-79.2-52.5-127.2-52.5c-6,0-11.9,0.3-17.8,0.9c-35.4,3.4-68.7,17.2-96.2,39.7c-4.6,3.8-9,7.8-13.3,12l-5.8,5.8l0.3,0.3
			c-30.7,33.4-47.6,76.2-47.6,121.7c0,45.6,16.9,88.4,47.5,121.7l-0.3,0.3l5.8,5.8c34,33.8,79.1,52.5,127,52.6c0.1,0,0.2,0,0.3,0
			c0.2,0,0.4,0,0.6,0c3.8,0,7.6-0.2,11.4-0.4c1.3-0.1,2.5-0.2,3.8-0.3c0.3,0,0.7-0.1,1-0.1c4.4,6.9,9.5,13.3,15.4,19.2
			c22.4,22.4,51.8,33.6,81.2,33.6c21.5,0,43.1-6.1,61.8-18.1l14.6,14.6c-1.6,3.3-2.5,6.8-2.5,10.5c0,6.6,2.6,12.7,7.2,17.4
			l58.9,58.9c8,8,18.5,12,29,12s21-4,29-12c7.7-7.7,12-18,12-29C505.999,456.1,501.799,445.8,493.999,438z M76.199,55.8
			c1.8-1.6,3.7-3.1,5.5-4.5c2.2-1.8,4.5-3.4,6.9-5.1c1.9-1.4,3.9-2.7,5.8-4c2.4-1.5,4.9-3,7.3-4.4c2-1.1,4-2.3,6.1-3.3
			c2.6-1.3,5.2-2.5,7.8-3.7c2.1-0.9,4.1-1.9,6.2-2.7c2.7-1.1,5.6-2,8.4-3c1.8-0.6,3.7-1.3,5.5-1.8c-12.9,13.9-23.8,33.3-31.9,56.9
			c-10.9-6.1-21.3-13.2-30.7-21.7C74.099,57.6,75.099,56.7,76.199,55.8z M61.599,70c11.4,10.3,23.9,19.2,37.3,26.3
			c-6.1,22.7-9.8,48.4-10.4,75.9h-69.5C20.899,134,35.799,98.2,61.599,70z M18.999,188.6h69.5c0.6,27.5,4.2,53.2,10.4,75.9
			c-13.4,7-25.8,15.9-37.3,26.3C35.799,262.6,20.899,226.8,18.999,188.6z M130.299,335.7c-2.9-1-5.8-1.9-8.5-3
			c-2.1-0.8-4.1-1.8-6.1-2.7c-2.7-1.2-5.3-2.4-7.9-3.7c-2-1-4-2.2-6-3.3c-2.5-1.4-5-2.9-7.4-4.4c-1.9-1.2-3.8-2.6-5.7-3.9
			c-2.4-1.7-4.7-3.4-7-5.2c-1.8-1.4-3.6-2.9-5.4-4.4c-1.1-0.9-2.1-1.9-3.1-2.8c9.4-8.5,19.8-15.6,30.7-21.6
			c8.1,23.5,19,43,31.9,56.8C133.899,336.9,132.099,336.3,130.299,335.7z M174.399,343.4c-22.7-5.3-42.8-32-55.5-70.1
			c17.5-7.4,36.2-11.7,55.5-12.6V343.4z M174.399,244.3c-20.9,0.9-41.3,5.3-60.2,13c-5.4-20.8-8.6-44.2-9.3-68.8h69.5V244.3z
			 M174.399,172.2h-69.5c0.6-24.6,3.8-48,9.3-68.8c19,7.8,39.3,12.1,60.2,13V172.2z M174.399,100.1c-19.3-1-38-5.2-55.5-12.6
			c12.7-38.1,32.8-64.8,55.5-70.1V100.1z M346.099,172.2h-69.5c-0.6-27.5-4.2-53.2-10.4-75.9c13.4-7,25.8-15.9,37.3-26.3
			C329.299,98.3,344.199,134,346.099,172.2z M346.199,188.6c-0.1,2-0.2,4.1-0.4,6.1c-4.9-2.4-9.9-4.5-15.1-6.1H346.199z M234.899,25
			c2.9,1,5.7,2,8.4,3.1c2.1,0.8,4.1,1.8,6.2,2.7c2.6,1.2,5.3,2.4,7.8,3.7c2,1,4,2.2,6,3.3c2.5,1.4,5,2.9,7.4,4.4
			c2,1.3,3.9,2.6,5.8,3.9c2.3,1.6,4.7,3.3,6.9,5.1c1.8,1.4,3.7,2.9,5.4,4.5c1.1,0.9,2.1,1.9,3.1,2.8c-9.4,8.5-19.8,15.6-30.6,21.6
			c-8.1-23.6-19-43-32-56.9C231.199,23.8,232.999,24.4,234.899,25z M190.799,17.4c22.7,5.3,42.8,32,55.5,70.1
			c-17.4,7.4-36.1,11.6-55.5,12.6V17.4z M190.799,116.4c20.9-0.9,41.3-5.2,60.2-13c5.4,20.8,8.6,44.2,9.3,68.8h-69.5V116.4z
			 M194.399,244.3c-1.2-0.1-2.5-0.2-3.7-0.2v-55.5h69.5c0,0.1,0,0.2,0,0.3c-16.9,5.5-32.5,14.9-45.5,27.9
			C206.599,225.1,199.799,234.3,194.399,244.3z M365.599,367.5c-1.9,1.9-3.8,3.5-5.8,5.2c-1.8,1.5-3.7,3-5.9,4.6l-4,2.9
			c-38.1,25.1-90,20.9-123.5-12.7c-18.6-18.6-28.8-43.3-28.8-69.6c0-26.3,10.2-51,28.8-69.6c18.6-18.6,43.3-28.8,69.6-28.8
			s51,10.2,69.6,28.8c33.5,33.5,37.7,85.4,12.7,123.6l-2.9,3.9c-1.6,2.1-3.1,4-4.6,5.9C369.099,363.7,367.399,365.6,365.599,367.5z
			 M371.099,384.7c2.2-1.9,4.2-3.7,6-5.6c1.9-1.9,3.7-3.9,5.6-6l11.8,11.8l-11.6,11.6L371.099,384.7z M482.399,484.4
			c-9.3,9.3-25.5,9.3-34.8,0l-58.9-58.9c-1.5-1.5-2.4-3.6-2.4-5.8c0-2.2,0.9-4.2,2.4-5.8l23.2-23.2c1.5-1.5,3.6-2.4,5.8-2.4
			s4.2,0.9,5.8,2.4l58.9,58.9c4.6,4.6,7.2,10.8,7.2,17.4C489.599,473.6,487.099,479.8,482.399,484.4z"/>
	</g>
</g>
<g>
	<g>
		<polygon points="340.699,248.4 272.699,316.4 245.699,289.4 234.199,301 272.699,339.5 352.299,260 		"/>
	</g>
</g>
<g>
	<g>
		<rect x="452.937" y="454.919" transform="matrix(0.7072 -0.707 0.707 0.7072 -192.4108 461.6246)" width="16.4" height="16.4"/>
	</g>
</g>
<g>
	<g>
		<rect x="429.764" y="431.749" transform="matrix(0.7071 -0.7071 0.7071 0.7071 -182.8139 438.5453)" width="16.4" height="16.4"/>
	</g>
</g>
<g>
	<g>
		<rect x="406.601" y="408.585" transform="matrix(0.7071 -0.7071 0.7071 0.7071 -173.219 415.3822)" width="16.4" height="16.4"/>
	</g>
</g>
<g>
</g>
<g>
</g>
<g>
</g>
<g>
</g>
<g>
</g>
<g>
</g>
<g>
</g>
<g>
</g>
<g>
</g>
<g>
</g>
<g>
</g>
<g>
</g>
<g>
</g>
<g>
</g>
<g>
</g>
</svg>
